CalSansUI-Medium.ufo
<glyph name="parenright" format="2">
  <advance width="344.9"/>
  <unicode hex="0029"/>
  <outline>
    <contour>
      <point x="131.225" y="-214.0" type="line"/>
      <point x="318.225" y="65.0"/>
      <point x="317.225" y="545.0"/>
      <point x="131.225" y="803.0" type="curve"/>
      <point x="43.675" y="755.75" type="line"/>
      <point x="214.45" y="527.325"/>
      <point x="208.45" y="104.25"/>
      <point x="43.675" y="-166.225" type="curve"/>
    </contour>
  </outline>
</glyph>
<glyph name="A" format="2">
  <advance width="702.9749999999999"/>
  <unicode hex="0041"/>
  <anchor x="357.275" y="0.0" name="bottom"/>
  <anchor x="570.625" y="0.0" name="ogonek"/>
  <anchor x="351.75" y="700.0" name="top"/>
  <anchor x="351.75" y="619.0" name="top_ring"/>
  <outline>
    <contour>
      <point x="12.05" y="0.0" type="line"/>
      <point x="132.825" y="0.0" type="line"/>
      <point x="198.175" y="171.77499999999998" type="line"/>
      <point x="211.6" y="207.52499999999998" type="line"/>
      <point x="313.65" y="465.325" type="line" smooth="yes"/>
      <point x="333.275" y="513.95"/>
      <point x="341.225" y="545.2249999999999"/>
      <point x="347.79999999999995" y="567.325" type="curve"/>
      <point x="354.225" y="567.325" type="line"/>
      <point x="360.8" y="545.2249999999999"/>
      <point x="369.7" y="514.475"/>
      <point x="389.325" y="465.325" type="curve" smooth="yes"/>
      <point x="490.85" y="207.52499999999998" type="line"/>
      <point x="504.275" y="171.77499999999998" type="line"/>
      <point x="570.625" y="0.0" type="line"/>
      <point x="690.925" y="0.0" type="line"/>
      <point x="398.04999999999995" y="700.0" type="line"/>
      <point x="305.4" y="700.0" type="line"/>
    </contour>
    <contour>
      <point x="155.225" y="138.425" type="line"/>
      <point x="538.95" y="138.425" type="line"/>
      <point x="538.95" y="242.45" type="line"/>
      <point x="155.225" y="242.45" type="line"/>
    </contour>
  </outline>
</glyph>
<glyph name="F" format="2">
  <advance width="551.275"/>
  <unicode hex="0046"/>
  <anchor x="136.35000000000002" y="0.0" name="bottom"/>
  <anchor x="110.65" y="0.0" name="ogonek"/>
  <anchor x="299.275" y="700.0" name="top"/>
  <outline>
    <contour>
      <point x="81.05000000000001" y="0.0" type="line"/>
      <point x="191.65" y="0.0" type="line"/>
      <point x="191.65" y="296.75" type="line"/>
      <point x="480.225" y="296.75" type="line"/>
      <point x="480.225" y="400.775" type="line"/>
      <point x="191.65" y="400.775" type="line"/>
      <point x="191.65" y="595.975" type="line"/>
      <point x="485.225" y="595.975" type="line"/>
      <point x="485.225" y="700.0" type="line"/>
      <point x="81.05000000000001" y="700.0" type="line"/>
    </contour>
  </outline>
</glyph>
<glyph name="Y" format="2">
  <advance width="588.925"/>
  <unicode hex="0059"/>
  <anchor x="296.2" y="0.0" name="bottom"/>
  <anchor x="296.725" y="700.0" name="top"/>
  <anchor x="20.0" y="700.0" name="topleft"/>
  <outline>
    <contour>
      <point x="240.475" y="0.0" type="line"/>
      <point x="350.025" y="0.0" type="line"/>
      <point x="350.025" y="283.775" type="line"/>
      <point x="583.875" y="700.0" type="line"/>
      <point x="460.8" y="700.0" type="line"/>
      <point x="363.675" y="514.8499999999999" type="line" smooth="yes"/>
      <point x="321.675" y="435.32500000000005"/>
      <point x="303.675" y="385.475"/>
      <point x="299.67499999999995" y="373.475" type="curve"/>
      <point x="296.675" y="373.475" type="line"/>
      <point x="293.675" y="385.475"/>
      <point x="273.625" y="430.85"/>
      <point x="229.14999999999998" y="513.85" type="curve" smooth="yes"/>
      <point x="128.6" y="700.0" type="line"/>
      <point x="5.050000000000001" y="700.0" type="line"/>
      <point x="240.475" y="285.725" type="line"/>
    </contour>
  </outline>
</glyph>
<glyph name="f" format="2">
  <advance width="398.35"/>
  <unicode hex="0066"/>
  <anchor x="166.875" y="0.0" name="bottom"/>
  <anchor x="259.57500000000005" y="740.0" name="top"/>
  <outline>
    <contour>
      <point x="115.1" y="0.0" type="line"/>
      <point x="221.22500000000002" y="0.0" type="line"/>
      <point x="221.22500000000002" y="575.45" type="line" smooth="yes"/>
      <point x="221.22500000000002" y="629.6"/>
      <point x="255.55" y="660.05"/>
      <point x="312.675" y="660.05" type="curve" smooth="yes"/>
      <point x="338.775" y="660.05"/>
      <point x="359.35" y="658.575"/>
      <point x="379.92499999999995" y="652.05" type="curve"/>
      <point x="379.92499999999995" y="743.95" type="line"/>
      <point x="349.35" y="751.0"/>
      <point x="330.92499999999995" y="753.0"/>
      <point x="294.025" y="753.0" type="curve" smooth="yes"/>
      <point x="188.89999999999998" y="753.0"/>
      <point x="115.1" y="685.1"/>
      <point x="115.1" y="579.0250000000001" type="curve" smooth="yes"/>
    </contour>
    <contour>
      <point x="18.425" y="402.32500000000005" type="line"/>
      <point x="379.92499999999995" y="402.32500000000005" type="line"/>
      <point x="379.92499999999995" y="497.125" type="line"/>
      <point x="18.425" y="497.125" type="line"/>
    </contour>
  </outline>
</glyph>
<glyph name="k" format="2">
  <advance width="550.175"/>
  <unicode hex="006B"/>
  <anchor x="275.35" y="0.0" name="bottom"/>
  <anchor x="275.35" y="700.0" name="top"/>
  <outline>
    <contour>
      <point x="71.05000000000001" y="0.0" type="line"/>
      <point x="178.22500000000002" y="0.0" type="line"/>
      <point x="178.22500000000002" y="252.1" type="line"/>
      <point x="182.175" y="252.1" type="line"/>
      <point x="390.325" y="0.0" type="line"/>
      <point x="524.125" y="0.475" type="line"/>
      <point x="292.55" y="280.125" type="line"/>
      <point x="516.3" y="497.125" type="line"/>
      <point x="373.70000000000005" y="497.125" type="line"/>
      <point x="182.175" y="296.35" type="line"/>
      <point x="178.22500000000002" y="296.35" type="line"/>
      <point x="178.22500000000002" y="700.0" type="line"/>
      <point x="71.05000000000001" y="700.0" type="line"/>
    </contour>
  </outline>
</glyph>
<glyph name="s" format="2">
  <advance width="479.15"/>
  <unicode hex="0073"/>
  <anchor x="241.925" y="0.0" name="bottom"/>
  <anchor x="320.725" y="0.0" name="ogonek"/>
  <anchor x="249.02499999999998" y="497.125" name="top"/>
  <outline>
    <contour>
      <point x="241.45" y="-13.0" type="curve" smooth="yes"/>
      <point x="347.425" y="-13.0"/>
      <point x="431.475" y="47.75"/>
      <point x="431.475" y="145.65" type="curve" smooth="yes"/>
      <point x="431.475" y="231.14999999999998"/>
      <point x="379.15" y="272.35"/>
      <point x="257.975" y="299.3" type="curve" smooth="yes"/>
      <point x="190.60000000000002" y="314.975"/>
      <point x="167.225" y="332.225"/>
      <point x="167.225" y="365.57500000000005" type="curve" smooth="yes"/>
      <point x="167.225" y="396.975"/>
      <point x="202.2" y="422.65"/>
      <point x="248.55" y="422.65" type="curve" smooth="yes"/>
      <point x="291.7" y="422.65"/>
      <point x="323.9" y="404.075"/>
      <point x="351.9" y="360.5" type="curve"/>
      <point x="430.0" y="420.225" type="line"/>
      <point x="385.57500000000005" y="479.85"/>
      <point x="337.375" y="510.125"/>
      <point x="245.925" y="510.125" type="curve" smooth="yes"/>
      <point x="135.2" y="510.125"/>
      <point x="62.0" y="441.525"/>
      <point x="62.0" y="359.525" type="curve" smooth="yes"/>
      <point x="62.0" y="274.55"/>
      <point x="116.275" y="229.025"/>
      <point x="222.6" y="205.925" type="curve" smooth="yes"/>
      <point x="296.475" y="189.77499999999998"/>
      <point x="325.775" y="171.575"/>
      <point x="325.775" y="137.225" type="curve" smooth="yes"/>
      <point x="325.775" y="98.2"/>
      <point x="288.79999999999995" y="77.525"/>
      <point x="237.45" y="77.525" type="curve" smooth="yes"/>
      <point x="183.875" y="77.525"/>
      <point x="147.45" y="100.475"/>
      <point x="105.875" y="143.575" type="curve"/>
      <point x="37.15" y="72.375" type="line"/>
      <point x="96.1" y="14.899999999999999"/>
      <point x="152.8" y="-13.0"/>
    </contour>
  </outline>
</glyph>
<glyph name="t" format="2">
  <advance width="399.925"/>
  <unicode hex="0074"/>
  <anchor x="193.35" y="312.95" name="bar"/>
  <anchor x="249.9" y="0.0" name="bottom"/>
  <anchor x="177.85" y="276.0" name="center"/>
  <anchor x="177.85" y="625.45" name="top"/>
  <anchor x="306.32500000000005" y="700.0" name="topright"/>
  <outline>
    <contour>
      <point x="291.55" y="-13.0" type="curve" smooth="yes"/>
      <point x="327.25" y="-13.525"/>
      <point x="347.25" y="-10.525"/>
      <point x="381.5" y="-3.475" type="curve"/>
      <point x="381.5" y="87.95" type="line"/>
      <point x="358.775" y="81.9"/>
      <point x="334.775" y="79.94999999999999"/>
      <point x="310.975" y="79.94999999999999" type="curve" smooth="yes"/>
      <point x="261.375" y="79.94999999999999"/>
      <point x="229.10000000000002" y="105.15"/>
      <point x="229.10000000000002" y="159.3" type="curve" smooth="yes"/>
      <point x="229.10000000000002" y="632.45" type="line"/>
      <point x="122.975" y="618.45" type="line"/>
      <point x="122.975" y="151.45" type="line" smooth="yes"/>
      <point x="122.975" y="49.65"/>
      <point x="188.375" y="-11.425"/>
    </contour>
    <contour>
      <point x="18.425" y="402.32500000000005" type="line"/>
      <point x="381.5" y="402.32500000000005" type="line"/>
      <point x="381.5" y="497.125" type="line"/>
      <point x="18.425" y="497.125" type="line"/>
    </contour>
  </outline>
</glyph>
<glyph name="x" format="2">
  <advance width="549.2750000000001"/>
  <unicode hex="0078"/>
  <anchor x="274.875" y="0.0" name="bottom"/>
  <anchor x="274.875" y="497.125" name="top"/>
  <outline>
    <contour>
      <point x="21.05" y="0.0" type="line"/>
      <point x="147.4" y="0.0" type="line"/>
      <point x="272.875" y="181.375" type="line"/>
      <point x="276.875" y="181.375" type="line"/>
      <point x="398.875" y="0.0" type="line"/>
      <point x="528.225" y="0.0" type="line"/>
      <point x="341.125" y="250.325" type="line"/>
      <point x="517.175" y="497.125" type="line"/>
      <point x="392.775" y="497.125" type="line"/>
      <point x="276.4" y="322.75" type="line"/>
      <point x="272.4" y="322.75" type="line"/>
      <point x="160.02499999999998" y="497.125" type="line"/>
      <point x="32.625" y="497.125" type="line"/>
      <point x="208.675" y="251.8" type="line"/>
    </contour>
  </outline>
</glyph>
<glyph name="bar" format="2">
  <advance width="259.65"/>
  <unicode hex="007C"/>
  <outline>
    <contour>
      <point x="83.67500000000001" y="-215.25" type="line"/>
      <point x="175.975" y="-215.25" type="line"/>
      <point x="175.975" y="900.0" type="line"/>
      <point x="83.67500000000001" y="900.0" type="line"/>
      <point x="83.67500000000001" y="18.775000000000002" type="line"/>
    </contour>
  </outline>
</glyph>
<glyph name="section" format="2">
  <advance width="527.225"/>
  <unicode hex="00A7"/>
  <outline>
    <contour>
      <point x="266.375" y="-108.475" type="curve" smooth="yes"/>
      <point x="374.92499999999995" y="-108.475"/>
      <point x="454.775" y="-49.525"/>
      <point x="454.775" y="52.7" type="curve" smooth="yes"/>
      <point x="454.775" y="108.875"/>
      <point x="430.45" y="150.075"/>
      <point x="383.4" y="173.7" type="curve"/>
      <point x="383.4" y="175.7" type="line"/>
      <point x="436.45" y="202.325"/>
      <point x="459.35" y="249.77499999999998"/>
      <point x="459.35" y="299.95" type="curve" smooth="yes"/>
      <point x="459.35" y="404.9"/>
      <point x="370.025" y="441.92499999999995"/>
      <point x="293.425" y="466.6" type="curve" smooth="yes"/>
      <point x="236.97500000000002" y="484.75"/>
      <point x="191.14999999999998" y="505.1"/>
      <point x="191.14999999999998" y="555.925" type="curve" smooth="yes"/>
      <point x="191.14999999999998" y="594.2249999999999"/>
      <point x="225.775" y="624.05"/>
      <point x="278.95000000000005" y="624.05" type="curve" smooth="yes"/>
      <point x="324.475" y="624.05"/>
      <point x="356.82500000000005" y="602.475"/>
      <point x="384.35" y="558.9000000000001" type="curve"/>
      <point x="455.82500000000005" y="604.3" type="line"/>
      <point x="418.975" y="663.05"/>
      <point x="365.55" y="700.5250000000001"/>
      <point x="282.325" y="700.5250000000001" type="curve" smooth="yes"/>
      <point x="172.95" y="700.5250000000001"/>
      <point x="102.875" y="636.6"/>
      <point x="102.875" y="548.45" type="curve" smooth="yes"/>
      <point x="102.875" y="492.925"/>
      <point x="130.35" y="454.25"/>
      <point x="184.35000000000002" y="428.725" type="curve"/>
      <point x="184.35000000000002" y="426.725" type="line"/>
      <point x="133.075" y="407.92499999999995"/>
      <point x="98.3" y="356.2"/>
      <point x="98.3" y="302.45" type="curve" smooth="yes"/>
      <point x="98.3" y="221.65"/>
      <point x="146.425" y="175.175"/>
      <point x="230.425" y="148.975" type="curve" smooth="yes"/>
      <point x="302.675" y="126.19999999999999"/>
      <point x="366.975" y="108.15"/>
      <point x="366.975" y="47.275" type="curve" smooth="yes"/>
      <point x="366.975" y="-3.8500000000000005"/>
      <point x="324.95" y="-31.475"/>
      <point x="271.32500000000005" y="-31.475" type="curve" smooth="yes"/>
      <point x="217.5" y="-31.475"/>
      <point x="171.5" y="-6.425000000000002"/>
      <point x="139.825" y="49.05" type="curve"/>
      <point x="67.875" y="2.1749999999999994" type="line"/>
      <point x="112.25" y="-71.9"/>
      <point x="182.525" y="-108.475"/>
    </contour>
    <contour>
      <point x="294.225" y="220.1" type="curve" smooth="yes"/>
      <point x="232.825" y="220.1"/>
      <point x="186.575" y="252.875"/>
      <point x="186.575" y="305.67499999999995" type="curve" smooth="yes"/>
      <point x="186.575" y="350.65"/>
      <point x="225.025" y="376.8"/>
      <point x="269.45" y="376.8" type="curve" smooth="yes"/>
      <point x="324.475" y="376.8"/>
      <point x="371.55" y="344.125"/>
      <point x="371.55" y="294.525" type="curve" smooth="yes"/>
      <point x="371.55" y="248.45"/>
      <point x="335.42499999999995" y="220.1"/>
    </contour>
  </outline>
</glyph>
<glyph name="OE" format="2">
  <advance width="1106.275"/>
  <unicode hex="0152"/>
  <anchor x="632.0999999999999" y="0.0" name="bottom"/>
  <anchor x="944.8" y="0.0" name="ogonek"/>
  <anchor x="632.0999999999999" y="700.0" name="top"/>
  <outline>
    <contour>
      <point x="674.425" y="177.825" type="curve"/>
      <point x="608.475" y="92.1" type="line"/>
      <point x="638.25" y="92.1" type="line"/>
      <point x="644.1500000000001" y="607.425" type="line"/>
      <point x="614.7249999999999" y="607.425" type="line"/>
      <point x="674.425" y="519.075" type="line"/>
      <point x="628.225" y="640.6500000000001"/>
      <point x="536.875" y="713.0"/>
      <point x="390.425" y="713.0" type="curve" smooth="yes"/>
      <point x="188.225" y="713.0"/>
      <point x="41.475" y="550.0"/>
      <point x="41.475" y="349.0" type="curve" smooth="yes"/>
      <point x="41.475" y="148.475"/>
      <point x="188.225" y="-13.0"/>
      <point x="390.425" y="-13.0" type="curve" smooth="yes"/>
      <point x="536.875" y="-13.0"/>
      <point x="628.225" y="59.875"/>
    </contour>
    <contour>
      <point x="392.8" y="92.45" type="curve" smooth="yes"/>
      <point x="254.75" y="92.45"/>
      <point x="153.5" y="189.39999999999998"/>
      <point x="153.5" y="349.0" type="curve" smooth="yes"/>
      <point x="153.5" y="508.6"/>
      <point x="254.75" y="607.55"/>
      <point x="392.8" y="607.55" type="curve" smooth="yes"/>
      <point x="530.9" y="607.55"/>
      <point x="632.0999999999999" y="513.325"/>
      <point x="632.0999999999999" y="349.525" type="curve" smooth="yes"/>
      <point x="632.0999999999999" y="189.925"/>
      <point x="530.9" y="92.45"/>
    </contour>
    <component base="E" xOffset="551.05"/>
  </outline>
</glyph>
<glyph name="Schwa" format="2">
  <advance width="774.95"/>
  <unicode hex="018F"/>
  <outline>
    <contour>
      <point x="378.475" y="-13.0" type="curve" smooth="yes"/>
      <point x="584.9" y="-13.0"/>
      <point x="733.4749999999999" y="146.375"/>
      <point x="733.4749999999999" y="349.0" type="curve" smooth="yes"/>
      <point x="733.4749999999999" y="552.625"/>
      <point x="587.0" y="713.0"/>
      <point x="378.475" y="713.0" type="curve" smooth="yes"/>
      <point x="258.475" y="713.0"/>
      <point x="164.8" y="669.175"/>
      <point x="85.775" y="575.825" type="curve"/>
      <point x="168.35000000000002" y="507.17499999999995" type="line"/>
      <point x="219.2" y="573.625"/>
      <point x="286.65" y="607.55"/>
      <point x="376.525" y="607.55" type="curve" smooth="yes"/>
      <point x="524.05" y="607.55"/>
      <point x="618.925" y="494.85"/>
      <point x="618.925" y="349.0" type="curve" smooth="yes"/>
      <point x="618.925" y="203.14999999999998"/>
      <point x="523.6" y="92.45"/>
      <point x="376.525" y="92.45" type="curve" smooth="yes"/>
      <point x="248.275" y="92.45"/>
      <point x="159.725" y="173.64999999999998"/>
      <point x="154.4" y="302.32500000000005" type="curve"/>
      <point x="123.29999999999998" y="281.75" type="line"/>
      <point x="661.925" y="281.225" type="line"/>
      <point x="661.925" y="380.775" type="line"/>
      <point x="45.425" y="380.775" type="line"/>
      <point x="42.95" y="364.5"/>
      <point x="41.475" y="340.85"/>
      <point x="41.475" y="321.475" type="curve" smooth="yes"/>
      <point x="41.475" y="126.95"/>
      <point x="174.25" y="-13.0"/>
    </contour>
  </outline>
</glyph>
<glyph name="cedillacomb" format="2">
  <unicode hex="0327"/>
  <anchor x="-1.1749999999999998" y="3.1500000000000004" name="_bottom"/>
  <anchor x="58.15" y="-203.325" name="bottom"/>
  <outline>
    <contour>
      <point x="-21.225" y="-220.525" type="curve" smooth="yes"/>
      <point x="35.075" y="-220.525"/>
      <point x="83.45" y="-186.85000000000002"/>
      <point x="83.45" y="-127.525" type="curve" smooth="yes"/>
      <point x="83.45" y="-82.425"/>
      <point x="51.775" y="-44.725"/>
      <point x="-1.299999999999999" y="-48.525" type="curve"/>
      <point x="13.375" y="-67.775" type="line"/>
      <point x="46.475" y="3.1500000000000004" type="line"/>
      <point x="-3.275" y="17.05" type="line"/>
      <point x="-50.75" y="-91.8" type="line"/>
      <point x="-47.275" y="-94.8" type="line"/>
      <point x="-40.75" y="-92.8"/>
      <point x="-33.7" y="-91.8"/>
      <point x="-23.700000000000003" y="-91.8" type="curve" smooth="yes"/>
      <point x="-2.2499999999999982" y="-91.8"/>
      <point x="15.475000000000001" y="-102.42500000000001"/>
      <point x="15.475000000000001" y="-122.67500000000001" type="curve" smooth="yes"/>
      <point x="15.475000000000001" y="-143.675"/>
      <point x="0.05000000000000071" y="-156.97500000000002"/>
      <point x="-25.5" y="-156.97500000000002" type="curve" smooth="yes"/>
      <point x="-44.7" y="-156.97500000000002"/>
      <point x="-61.375" y="-148.925"/>
      <point x="-75.0" y="-134.72500000000002" type="curve"/>
      <point x="-113.65" y="-185.9" type="line"/>
      <point x="-83.525" y="-211.8"/>
      <point x="-58.7" y="-220.525"/>
    </contour>
  </outline>
</glyph>
<glyph name="ogonekcomb" format="2">
  <unicode hex="0328"/>
  <anchor x="0.0" y="0.0" name="_ogonek"/>
  <outline>
    <contour>
      <point x="56.6" y="-220.0" type="curve" smooth="yes"/>
      <point x="76.69999999999999" y="-220.0"/>
      <point x="99.325" y="-217.95"/>
      <point x="124.0" y="-211.375" type="curve"/>
      <point x="105.625" y="-137.60000000000002" type="line"/>
      <point x="95.475" y="-140.65"/>
      <point x="84.32499999999999" y="-142.175"/>
      <point x="70.225" y="-142.175" type="curve" smooth="yes"/>
      <point x="35.35" y="-142.175"/>
      <point x="11.724999999999998" y="-125.75"/>
      <point x="11.724999999999998" y="-92.875" type="curve" smooth="yes"/>
      <point x="11.724999999999998" y="-42.425"/>
      <point x="51.7" y="-13.9"/>
      <point x="86.55" y="0.0" type="curve"/>
      <point x="68.225" y="6.0" type="line"/>
      <point x="23.0" y="17.0" type="line"/>
      <point x="0.0" y="0.0" type="line" smooth="yes"/>
      <point x="-48.575" y="-35.05"/>
      <point x="-71.475" y="-75.675"/>
      <point x="-71.0" y="-116.525" type="curve" smooth="yes"/>
      <point x="-70.05" y="-184.22500000000002"/>
      <point x="-21.2" y="-220.0"/>
    </contour>
  </outline>
</glyph>
<glyph name="slashlongcomb" format="2">
  <unicode hex="0338"/>
  <anchor x="288.0" y="264.0" name="_center"/>
  <outline>
    <contour>
      <point x="14.25" y="-40.0" type="line"/>
      <point x="92.75" y="-40.0" type="line"/>
      <point x="555.75" y="560.0" type="line"/>
      <point x="477.25" y="560.0" type="line"/>
    </contour>
  </outline>
</glyph>
<glyph name="pi" format="2">
  <advance width="602.7"/>
  <unicode hex="03C0"/>
  <outline>
    <contour>
      <point x="538.1" y="-7.0" type="curve" smooth="yes"/>
      <point x="557.5" y="-7.525"/>
      <point x="570.45" y="-5.475"/>
      <point x="584.275" y="-0.7999999999999998" type="curve"/>
      <point x="584.275" y="96.32499999999999" type="line"/>
      <point x="575.8" y="92.17500000000001"/>
      <point x="557.4000000000001" y="91.175"/>
      <point x="544.2" y="91.175" type="curve" smooth="yes"/>
      <point x="499.20000000000005" y="91.175"/>
      <point x="477.1" y="114.95"/>
      <point x="477.1" y="164.825" type="curve" smooth="yes"/>
      <point x="477.1" y="402.32500000000005" type="line"/>
      <point x="584.275" y="402.32500000000005" type="line"/>
      <point x="584.275" y="497.125" type="line"/>
      <point x="18.425" y="497.125" type="line"/>
      <point x="18.425" y="402.32500000000005" type="line"/>
      <point x="122.975" y="402.32500000000005" type="line"/>
      <point x="122.975" y="0.0" type="line"/>
      <point x="229.10000000000002" y="0.0" type="line"/>
      <point x="229.10000000000002" y="402.32500000000005" type="line"/>
      <point x="370.975" y="402.32500000000005" type="line"/>
      <point x="370.975" y="157.45" type="line" smooth="yes"/>
      <point x="370.975" y="36.65"/>
      <point x="442.25" y="-5.425"/>
    </contour>
  </outline>
</glyph>
<glyph name="naira" format="2">
  <advance width="734.9749999999999"/>
  <unicode hex="20A6"/>
  <anchor x="373.2739375" y="30.0" name="bottom"/>
  <anchor x="639.177915" y="30.0" name="ogonek"/>
  <anchor x="364.75744000000003" y="669.94" name="top"/>
  <outline>
    <contour>
      <point x="0.0" y="320.67499999999995" type="line"/>
      <point x="734.9749999999999" y="320.67499999999995" type="line"/>
      <point x="734.9749999999999" y="398.85" type="line"/>
      <point x="0.0" y="398.85" type="line"/>
    </contour>
    <component base="N" xScale="0.9462775" yScale="0.9142" xOffset="4.475" yOffset="30.0"/>
  </outline>
</glyph>
<glyph name="kip" format="2">
  <advance width="622.8"/>
  <unicode hex="20AD"/>
  <anchor x="307.775" y="29.049999999999997" name="bottom"/>
  <anchor x="466.725" y="29.049999999999997" name="ogonek"/>
  <anchor x="297.775" y="673.1200375000001" name="top"/>
  <outline>
    <contour>
      <point x="0.0" y="320.67499999999995" type="line"/>
      <point x="612.8" y="320.67499999999995" type="line"/>
      <point x="612.8" y="398.85" type="line"/>
      <point x="0.0" y="398.85" type="line"/>
    </contour>
    <component base="K" yScale="0.9187875" yOffset="29.049999999999997"/>
  </outline>
</glyph>
<glyph name="tenge" format="2">
  <advance width="609.5250000000001"/>
  <unicode hex="20B8"/>
  <outline>
    <contour>
      <point x="250.25" y="30.0" type="line"/>
      <point x="359.8" y="30.0" type="line"/>
      <point x="359.8" y="488.15" type="line"/>
      <point x="250.25" y="488.15" type="line"/>
    </contour>
    <contour>
      <point x="46.05" y="435.475" type="line"/>
      <point x="563.475" y="435.475" type="line"/>
      <point x="563.475" y="539.5" type="line"/>
      <point x="46.05" y="539.5" type="line"/>
    </contour>
    <contour>
      <point x="46.05" y="591.825" type="line"/>
      <point x="563.475" y="591.825" type="line"/>
      <point x="562.4749999999999" y="670.0" type="line"/>
      <point x="46.05" y="670.0" type="line"/>
    </contour>
  </outline>
</glyph>
<glyph name="liraTurkish" format="2">
  <advance width="560.625"/>
  <unicode hex="20BA"/>
  <outline>
    <contour>
      <point x="31.55" y="300.15" type="line"/>
      <point x="495.4" y="397.525" type="line"/>
      <point x="495.4" y="480.7" type="line"/>
      <point x="31.55" y="383.325" type="line"/>
    </contour>
    <contour>
      <point x="31.55" y="436.17499999999995" type="line"/>
      <point x="495.4" y="533.55" type="line"/>
      <point x="495.4" y="613.875" type="line"/>
      <point x="31.55" y="518.875" type="line"/>
    </contour>
    <contour>
      <point x="109.675" y="24.75" type="line"/>
      <point x="228.3" y="24.75" type="line" smooth="yes"/>
      <point x="393.54999999999995" y="24.75"/>
      <point x="500.95" y="108.85"/>
      <point x="517.9000000000001" y="266.975" type="curve" smooth="yes"/>
      <point x="522.425" y="308.325" type="line"/>
      <point x="424.725" y="318.175" type="line"/>
      <point x="420.675" y="279.82500000000005" type="line" smooth="yes"/>
      <point x="409.1" y="177.45"/>
      <point x="347.3" y="128.775"/>
      <point x="247.825" y="128.775" type="curve" smooth="yes"/>
      <point x="219.22500000000002" y="128.775" type="line"/>
      <point x="219.22500000000002" y="675.25" type="line"/>
      <point x="109.675" y="675.25" type="line"/>
    </contour>
  </outline>
</glyph>
<glyph name="approxequal" format="2">
  <advance width="596.0"/>
  <unicode hex="2248"/>
  <outline>
    <contour>
      <point x="73.92500000000001" y="168.175" type="line"/>
      <point x="147.35000000000002" y="198.175"/>
      <point x="221.25" y="198.175"/>
      <point x="294.675" y="168.175" type="curve" smooth="yes"/>
      <point x="365.1" y="139.175"/>
      <point x="442.0" y="138.175"/>
      <point x="515.425" y="168.175" type="curve"/>
      <point x="515.425" y="258.225" type="line"/>
      <point x="442.0" y="228.225"/>
      <point x="365.1" y="229.22500000000002"/>
      <point x="294.675" y="258.225" type="curve" smooth="yes"/>
      <point x="221.25" y="288.225"/>
      <point x="147.35000000000002" y="288.225"/>
      <point x="73.92500000000001" y="258.225" type="curve"/>
    </contour>
    <contour>
      <point x="73.92500000000001" y="374.35" type="line"/>
      <point x="147.35000000000002" y="404.35"/>
      <point x="221.25" y="404.35"/>
      <point x="294.675" y="374.35" type="curve" smooth="yes"/>
      <point x="365.1" y="345.35"/>
      <point x="442.0" y="344.35"/>
      <point x="515.425" y="374.35" type="curve"/>
      <point x="515.425" y="464.4" type="line"/>
      <point x="442.0" y="434.4"/>
      <point x="365.1" y="435.4"/>
      <point x="294.675" y="464.4" type="curve" smooth="yes"/>
      <point x="221.25" y="494.4"/>
      <point x="147.35000000000002" y="494.4"/>
      <point x="73.92500000000001" y="464.4" type="curve"/>
    </contour>
  </outline>
</glyph>
<glyph name="greaterequal" format="2">
  <advance width="596.0"/>
  <unicode hex="2265"/>
  <outline>
    <contour>
      <point x="65.0" y="220.0" type="line"/>
      <point x="544.0" y="430.0" type="line"/>
      <point x="65.0" y="640.0" type="line"/>
      <point x="65.0" y="540.275" type="line"/>
      <point x="335.85" y="432.05" type="line"/>
      <point x="335.85" y="429.0" type="line"/>
      <point x="65.475" y="319.725" type="line"/>
    </contour>
    <contour>
      <point x="65.0" y="90.975" type="line"/>
      <point x="517.0" y="90.975" type="line"/>
      <point x="517.0" y="181.02499999999998" type="line"/>
      <point x="65.0" y="181.02499999999998" type="line"/>
    </contour>
  </outline>
</glyph>
<glyph name="D.circled" format="2">
  <advance width="898.375"/>
  <unicode hex="24B9"/>
  <anchor x="443.609" y="120.0" name="bottom"/>
  <anchor x="308.80740000000003" y="354.0743" name="center"/>
  <anchor x="456.065" y="589.49" name="top"/>
  <outline>
    <contour>
      <point x="448.95000000000005" y="-50.0" type="curve" smooth="yes"/>
      <point x="671.475" y="-50.0"/>
      <point x="848.65" y="129.0"/>
      <point x="848.65" y="352.0" type="curve" smooth="yes"/>
      <point x="848.65" y="575.05"/>
      <point x="671.95" y="753.5250000000001"/>
      <point x="448.95000000000005" y="753.5250000000001" type="curve" smooth="yes"/>
      <point x="226.425" y="753.5250000000001"/>
      <point x="49.725" y="575.05"/>
      <point x="49.725" y="352.0" type="curve" smooth="yes"/>
      <point x="49.725" y="129.0"/>
      <point x="226.425" y="-50.0"/>
    </contour>
    <contour>
      <point x="448.95000000000005" y="20.175" type="curve" smooth="yes"/>
      <point x="267.275" y="20.175"/>
      <point x="125.32499999999999" y="169.325"/>
      <point x="125.32499999999999" y="352.0" type="curve" smooth="yes"/>
      <point x="125.32499999999999" y="533.675"/>
      <point x="267.275" y="682.825"/>
      <point x="448.95000000000005" y="682.825" type="curve" smooth="yes"/>
      <point x="631.625" y="682.825"/>
      <point x="773.05" y="533.675"/>
      <point x="773.05" y="352.0" type="curve" smooth="yes"/>
      <point x="773.05" y="169.325"/>
      <point x="631.1500000000001" y="20.175"/>
    </contour>
    <component base="D" xScale="0.692" yScale="0.6707" xOffset="213.0" yOffset="120.0"/>
  </outline>
</glyph>
<glyph name="ballotBoxWithCheck" format="2">
  <advance width="890.0"/>
  <unicode hex="2611"/>
  <outline>
    <contour>
      <point x="356.0" y="151.25" type="line"/>
      <point x="406.92499999999995" y="221.875" type="line"/>
      <point x="274.775" y="363.54999999999995" type="line"/>
      <point x="213.0" y="304.25" type="line"/>
    </contour>
    <contour>
      <point x="356.0" y="151.25" type="line"/>
      <point x="680.5250000000001" y="500.77500000000003" type="line"/>
      <point x="618.225" y="560.075" type="line"/>
      <point x="306.07500000000005" y="223.925" type="line"/>
    </contour>
    <component base="whiteSquare"/>
  </outline>
</glyph>
<glyph name="heartWhiteSuit" format="2">
  <advance width="832.0"/>
  <unicode hex="2661"/>
  <outline>
    <contour>
      <point x="416.0" y="-13.0" type="curve"/>
      <point x="618.0" y="102.0"/>
      <point x="827.0" y="294.0"/>
      <point x="827.0" y="508.0" type="curve" smooth="yes"/>
      <point x="827.0" y="622.0"/>
      <point x="736.0" y="713.0"/>
      <point x="622.0" y="713.0" type="curve" smooth="yes"/>
      <point x="503.0" y="713.0"/>
      <point x="426.475" y="620.0"/>
      <point x="419.475" y="531.0" type="curve"/>
      <point x="412.525" y="531.0" type="line"/>
      <point x="405.525" y="621.0"/>
      <point x="329.0" y="713.0"/>
      <point x="210.0" y="713.0" type="curve" smooth="yes"/>
      <point x="96.0" y="713.0"/>
      <point x="5.0" y="622.0"/>
      <point x="5.0" y="508.0" type="curve" smooth="yes"/>
      <point x="5.0" y="294.0"/>
      <point x="214.0" y="102.0"/>
    </contour>
    <contour>
      <point x="416.0" y="69.225" type="curve"/>
      <point x="246.025" y="171.425"/>
      <point x="83.8" y="330.45"/>
      <point x="83.8" y="497.725" type="curve" smooth="yes"/>
      <point x="83.8" y="577.75"/>
      <point x="143.825" y="643.525"/>
      <point x="218.65" y="643.525" type="curve" smooth="yes"/>
      <point x="306.92499999999995" y="643.525"/>
      <point x="353.6" y="593.3499999999999"/>
      <point x="386.2" y="473.525" type="curve"/>
      <point x="445.8" y="473.525" type="line"/>
      <point x="473.175" y="592.875"/>
      <point x="517.2" y="643.525"/>
      <point x="613.825" y="643.525" type="curve" smooth="yes"/>
      <point x="688.6500000000001" y="643.525"/>
      <point x="748.675" y="577.75"/>
      <point x="748.675" y="497.725" type="curve" smooth="yes"/>
      <point x="748.675" y="330.45"/>
      <point x="585.9749999999999" y="171.425"/>
    </contour>
  </outline>
</glyph>
<glyph name="heavyCheckMark" format="2">
  <advance width="600.0"/>
  <unicode hex="2714"/>
  <outline>
    <contour>
      <point x="193.35" y="170.125" type="curve" smooth="yes"/>
      <point x="216.35" y="151.125"/>
      <point x="244.925" y="136.275"/>
      <point x="286.57500000000005" y="171.175" type="curve" smooth="yes"/>
      <point x="361.475" y="233.9"/>
      <point x="485.775" y="459.325"/>
      <point x="536.0" y="573.25" type="curve" smooth="yes"/>
      <point x="546.9" y="599.75"/>
      <point x="517.25" y="614.925"/>
      <point x="502.025" y="592.325" type="curve" smooth="yes"/>
      <point x="408.025" y="447.32500000000005"/>
      <point x="321.95" y="321.025"/>
      <point x="271.95" y="263.025" type="curve" smooth="yes"/>
      <point x="257.95" y="247.02499999999998"/>
      <point x="246.475" y="249.075"/>
      <point x="228.95" y="264.025" type="curve" smooth="yes"/>
      <point x="192.225" y="295.07500000000005"/>
      <point x="163.39999999999998" y="333.625"/>
      <point x="136.825" y="378.9" type="curve" smooth="yes"/>
      <point x="121.82499999999999" y="403.65"/>
      <point x="94.65" y="399.70000000000005"/>
      <point x="77.0" y="369.0" type="curve" smooth="yes"/>
      <point x="64.775" y="348.20000000000005"/>
      <point x="61.925" y="317.975"/>
      <point x="71.35" y="303.125" type="curve" smooth="yes"/>
      <point x="96.35" y="259.125"/>
      <point x="146.35" y="209.125"/>
    </contour>
  </outline>
</glyph>
<glyph name="ballotX" format="2">
  <advance width="600.0"/>
  <unicode hex="2717"/>
  <outline>
    <contour>
      <point x="438.35" y="150.825" type="line"/>
      <point x="499.6" y="211.64999999999998" type="line"/>
      <point x="162.6" y="549.175" type="line"/>
      <point x="101.35" y="487.875" type="line"/>
    </contour>
    <contour>
      <point x="162.125" y="149.875" type="line"/>
      <point x="498.65" y="487.875" type="line"/>
      <point x="438.35" y="549.65" type="line"/>
      <point x="101.825" y="211.64999999999998" type="line"/>
    </contour>
  </outline>
</glyph>
<glyph name="rightanglebracket-math" format="2">
  <advance width="330.375"/>
  <unicode hex="27E9"/>
  <outline>
    <contour>
      <point x="43.675" y="-220.0" type="line"/>
      <point x="150.375" y="-220.0" type="line"/>
      <point x="320.375" y="240.0" type="line"/>
      <point x="150.375" y="700.0" type="line"/>
      <point x="44.675" y="700.0" type="line"/>
      <point x="213.675" y="238.0" type="line"/>
      <point x="213.675" y="233.0" type="line"/>
    </contour>
  </outline>
</glyph>
<glyph name="Eng.ss10" format="2">
  <advance width="764.9749999999999"/>
  <anchor x="389.75" y="0.0" name="bottom"/>
  <anchor x="670.75" y="0.0" name="ogonek"/>
  <anchor x="380.75" y="700.0" name="top"/>
  <outline>
    <contour>
      <point x="579.65" y="126.75" type="line"/>
      <point x="579.65" y="-220.0" type="line"/>
      <point x="683.925" y="-220.0" type="line"/>
      <point x="683.925" y="0.0" type="line"/>
    </contour>
    <component base="N"/>
  </outline>
</glyph>
<glyph name="breveinvertedcomb.case" format="2">
  <anchor x="0.0" y="700.0" name="_top"/>
  <anchor x="0.525" y="834.15" name="top"/>
  <outline>
    <contour>
      <point x="-142.125" y="740.15" type="curve"/>
      <point x="-64.4" y="740.15" type="line"/>
      <point x="-65.925" y="771.875"/>
      <point x="-41.125" y="798.125"/>
      <point x="0.0" y="798.125" type="curve" smooth="yes"/>
      <point x="39.55" y="798.125"/>
      <point x="65.925" y="771.875"/>
      <point x="64.4" y="740.15" type="curve"/>
      <point x="142.125" y="740.15" type="line"/>
      <point x="142.125" y="810.45"/>
      <point x="83.8" y="859.775"/>
      <point x="0.0" y="859.775" type="curve" smooth="yes"/>
      <point x="-84.275" y="859.775"/>
      <point x="-142.125" y="810.45"/>
    </contour>
  </outline>
</glyph>
<glyph name="caroncomb.alt" format="2">
  <anchor x="37.0" y="740.0" name="_topright"/>
  <outline>
    <contour>
      <point x="11.0" y="525.5" type="line"/>
      <point x="85.575" y="525.5" type="line"/>
      <point x="177.8" y="740.0" type="line"/>
      <point x="61.0" y="740.0" type="line"/>
    </contour>
  </outline>
</glyph>
<glyph name="commaaccentcomb.loclMAH" format="2">
  <anchor x="0.0" y="0.0" name="_bottom"/>
  <outline>
    <contour>
      <point x="7.825" y="-220.525" type="curve" smooth="yes"/>
      <point x="64.125" y="-220.525"/>
      <point x="117.5" y="-185.8"/>
      <point x="117.5" y="-122.67500000000001" type="curve" smooth="yes"/>
      <point x="117.5" y="-70.35"/>
      <point x="69.55" y="-30.525000000000002"/>
      <point x="0.525" y="-38.35" type="curve"/>
      <point x="-21.7" y="-91.8" type="line"/>
      <point x="-18.224999999999998" y="-94.8" type="line"/>
      <point x="-11.7" y="-92.8"/>
      <point x="-4.6499999999999995" y="-91.8"/>
      <point x="5.3500000000000005" y="-91.8" type="curve" smooth="yes"/>
      <point x="26.8" y="-91.8"/>
      <point x="44.525" y="-102.42500000000001"/>
      <point x="44.525" y="-122.67500000000001" type="curve" smooth="yes"/>
      <point x="44.525" y="-143.675"/>
      <point x="29.1" y="-156.97500000000002"/>
      <point x="3.5500000000000007" y="-156.97500000000002" type="curve" smooth="yes"/>
      <point x="-15.649999999999999" y="-156.97500000000002"/>
      <point x="-32.325" y="-148.925"/>
      <point x="-45.95" y="-134.72500000000002" type="curve"/>
      <point x="-84.6" y="-185.9" type="line"/>
      <point x="-54.475" y="-211.8"/>
      <point x="-29.65" y="-220.525"/>
    </contour>
  </outline>
</glyph>
<glyph name="eng.ss10" format="2">
  <advance width="580.85"/>
  <outline>
    <contour>
      <point x="71.05000000000001" y="0.0" type="line"/>
      <point x="177.175" y="0.0" type="line"/>
      <point x="177.175" y="293.15" type="line" smooth="yes"/>
      <point x="177.175" y="368.025"/>
      <point x="224.10000000000002" y="414.75"/>
      <point x="298.275" y="414.75" type="curve" smooth="yes"/>
      <point x="366.0" y="414.75"/>
      <point x="408.675" y="368.025"/>
      <point x="408.675" y="293.15" type="curve" smooth="yes"/>
      <point x="408.675" y="-220.0" type="line"/>
      <point x="514.8" y="-220.0" type="line"/>
      <point x="514.8" y="318.275" type="line" smooth="yes"/>
      <point x="514.8" y="432.42499999999995"/>
      <point x="434.04999999999995" y="509.65"/>
      <point x="330.225" y="509.65" type="curve" smooth="yes"/>
      <point x="251.6" y="509.65"/>
      <point x="204.275" y="469.65"/>
      <point x="179.175" y="427.4" type="curve"/>
      <point x="173.175" y="427.4" type="line"/>
      <point x="173.175" y="497.125" type="line"/>
      <point x="71.05000000000001" y="497.125" type="line"/>
    </contour>
  </outline>
</glyph>
<glyph name="euro.tf" format="2">
  <advance width="596.0"/>
  <outline>
    <contour>
      <point x="369.15" y="21.75" type="curve" smooth="yes"/>
      <point x="465.65" y="21.75"/>
      <point x="545.125" y="57.7"/>
      <point x="599.175" y="116.975" type="curve"/>
      <point x="519.7249999999999" y="184.55" type="line"/>
      <point x="479.525" y="141.125"/>
      <point x="430.125" y="121.30000000000001"/>
      <point x="373.20000000000005" y="121.30000000000001" type="curve" smooth="yes"/>
      <point x="283.575" y="121.30000000000001"/>
      <point x="199.7" y="171.225"/>
      <point x="179.325" y="288.225" type="curve" smooth="yes"/>
      <point x="175.89999999999998" y="307.325" type="line"/>
      <point x="170.95" y="343.525"/>
      <point x="169.95" y="358.1"/>
      <point x="174.9" y="394.29999999999995" type="curve"/>
      <point x="179.325" y="414.4" type="line" smooth="yes"/>
      <point x="200.7" y="535.075"/>
      <point x="283.575" y="578.7"/>
      <point x="369.675" y="578.7" type="curve" smooth="yes"/>
      <point x="426.85" y="578.7"/>
      <point x="471.25" y="564.075"/>
      <point x="523.225" y="518.5" type="curve"/>
      <point x="585.9000000000001" y="595.075" type="line"/>
      <point x="527.175" y="653.25"/>
      <point x="463.675" y="678.25"/>
      <point x="369.15" y="678.25" type="curve" smooth="yes"/>
      <point x="175.25" y="678.25"/>
      <point x="59.925" y="534.75"/>
      <point x="59.925" y="349.0" type="curve" smooth="yes"/>
      <point x="59.925" y="164.25"/>
      <point x="183.25" y="21.75"/>
    </contour>
    <contour>
      <point x="-34.974999999999994" y="240.14999999999998" type="line"/>
      <point x="369.275" y="240.14999999999998" type="line"/>
      <point x="413.125" y="318.325" type="line"/>
      <point x="18.3" y="318.325" type="line"/>
    </contour>
    <contour>
      <point x="-38.45" y="381.67499999999995" type="line"/>
      <point x="450.225" y="381.67499999999995" type="line"/>
      <point x="499.82500000000005" y="459.85" type="line"/>
      <point x="15.825" y="459.85" type="line"/>
    </contour>
  </outline>
</glyph>
<glyph name="f_f_i" format="2">
  <advance width="934.575"/>
  <anchor x="166.875" y="0.0" name="bottom_1"/>
  <anchor x="259.57500000000005" y="740.0" name="top_1"/>
  <anchor x="488.575" y="0.0" name="bottom_2"/>
  <anchor x="581.275" y="740.0" name="top_2"/>
  <anchor x="810.75" y="0.0" name="bottom_3"/>
  <anchor x="780.825" y="0.0" name="ogonek_3"/>
  <anchor x="810.75" y="497.125" name="top_3"/>
  <anchor x="379.92499999999995" y="0.0" name="caret_1"/>
  <anchor x="701.625" y="0.0" name="caret_2"/>
  <outline>
    <contour>
      <point x="250.7" y="402.32500000000005" type="line"/>
      <point x="853.575" y="402.32500000000005" type="line"/>
      <point x="863.575" y="497.125" type="line"/>
      <point x="250.7" y="497.125" type="line"/>
    </contour>
    <component base="f"/>
    <component base="f" xOffset="321.7"/>
    <component base="i" xOffset="686.4"/>
  </outline>
</glyph>
<glyph name="f_i.ss11" format="2">
  <advance width="605.85"/>
  <anchor x="481.975" y="0.0" name="bottom_1"/>
  <anchor x="452.05" y="0.0" name="ogonek_1"/>
  <anchor x="481.975" y="497.125" name="top_1"/>
  <anchor x="370.42499999999995" y="0.0" name="caret_1"/>
  <outline>
    <contour>
      <point x="115.1" y="0.0" type="line"/>
      <point x="221.22500000000002" y="0.0" type="line"/>
      <point x="221.22500000000002" y="520.125" type="line" smooth="yes"/>
      <point x="221.22500000000002" y="581.425"/>
      <point x="262.725" y="618.1"/>
      <point x="325.45" y="618.1" type="curve" smooth="yes"/>
      <point x="390.8" y="618.1"/>
      <point x="429.20000000000005" y="576.75"/>
      <point x="429.20000000000005" y="509.25" type="curve"/>
      <point x="395.425" y="549.8" type="line"/>
      <point x="559.025" y="549.8" type="line"/>
      <point x="534.8" y="511.3" type="line"/>
      <point x="534.8" y="635.1"/>
      <point x="447.4" y="713.0"/>
      <point x="325.45" y="713.0" type="curve" smooth="yes"/>
      <point x="202.47500000000002" y="713.0"/>
      <point x="115.1" y="639.675"/>
      <point x="115.1" y="524.6" type="curve" smooth="yes"/>
    </contour>
    <contour>
      <point x="18.425" y="402.32500000000005" type="line"/>
      <point x="363.325" y="402.32500000000005" type="line"/>
      <point x="363.325" y="497.125" type="line"/>
      <point x="18.425" y="497.125" type="line"/>
    </contour>
    <component base="idotless" xOffset="357.625"/>
  </outline>
</glyph>
<glyph name="f_l.ss11" format="2">
  <advance width="630.125"/>
  <anchor x="379.92499999999995" y="0.0" name="caret_1"/>
  <outline>
    <contour>
      <point x="115.1" y="0.0" type="line"/>
      <point x="221.22500000000002" y="0.0" type="line"/>
      <point x="221.22500000000002" y="506.975" type="line" smooth="yes"/>
      <point x="221.22500000000002" y="577.0999999999999"/>
      <point x="264.9" y="615.25"/>
      <point x="337.825" y="615.25" type="curve" smooth="yes"/>
      <point x="407.65" y="615.25"/>
      <point x="453.425" y="578.05"/>
      <point x="453.425" y="510.3" type="curve" smooth="yes"/>
      <point x="453.425" y="0.0" type="line"/>
      <point x="559.55" y="0.0" type="line"/>
      <point x="559.55" y="517.15" type="line" smooth="yes"/>
      <point x="559.55" y="632.2"/>
      <point x="463.325" y="713.0"/>
      <point x="337.825" y="713.0" type="curve" smooth="yes"/>
      <point x="209.22500000000002" y="713.0"/>
      <point x="115.1" y="632.2"/>
      <point x="115.1" y="517.15" type="curve" smooth="yes"/>
    </contour>
    <contour>
      <point x="18.425" y="402.32500000000005" type="line"/>
      <point x="380.45" y="402.32500000000005" type="line"/>
      <point x="380.45" y="497.125" type="line"/>
      <point x="18.425" y="497.125" type="line"/>
    </contour>
  </outline>
</glyph>
<glyph name="f_t" format="2">
  <advance width="773.025"/>
  <anchor x="166.875" y="0.0" name="bottom_1"/>
  <anchor x="259.57500000000005" y="700.0" name="top_1"/>
  <anchor x="566.45" y="312.95" name="bar_2"/>
  <anchor x="623.0" y="0.0" name="bottom_2"/>
  <anchor x="550.95" y="276.0" name="center_2"/>
  <anchor x="550.95" y="625.45" name="top_2"/>
  <anchor x="679.425" y="700.0" name="topright_2"/>
  <anchor x="392.0" y="0.0" name="caret_1"/>
  <outline>
    <contour>
      <point x="108.19999999999999" y="402.32500000000005" type="line"/>
      <point x="577.2" y="402.32500000000005" type="line"/>
      <point x="581.95" y="497.125" type="line"/>
      <point x="108.19999999999999" y="497.125" type="line"/>
    </contour>
    <component base="f"/>
    <component base="t" xOffset="373.1"/>
  </outline>
</glyph>
<glyph name="fl.ss11" format="2">
  <advance width="603.475"/>
  <anchor x="368.04999999999995" y="0.0" name="caret_1"/>
  <outline>
    <contour>
      <point x="115.1" y="0.0" type="line"/>
      <point x="221.22500000000002" y="0.0" type="line"/>
      <point x="221.22500000000002" y="514.6" type="line" smooth="yes"/>
      <point x="221.22500000000002" y="578.375"/>
      <point x="260.1" y="615.725"/>
      <point x="325.45" y="615.725" type="curve" smooth="yes"/>
      <point x="389.375" y="615.725"/>
      <point x="426.775" y="579.8"/>
      <point x="426.775" y="518.4000000000001" type="curve" smooth="yes"/>
      <point x="426.775" y="0.0" type="line"/>
      <point x="532.9" y="0.0" type="line"/>
      <point x="532.9" y="512.7" type="line" smooth="yes"/>
      <point x="532.9" y="635.7750000000001"/>
      <point x="453.1" y="713.0"/>
      <point x="325.45" y="713.0" type="curve" smooth="yes"/>
      <point x="200.575" y="713.0"/>
      <point x="115.1" y="632.625"/>
      <point x="115.1" y="514.8" type="curve" smooth="yes"/>
    </contour>
    <contour>
      <point x="18.425" y="402.32500000000005" type="line"/>
      <point x="368.575" y="402.32500000000005" type="line"/>
      <point x="368.575" y="497.125" type="line"/>
      <point x="18.425" y="497.125" type="line"/>
    </contour>
  </outline>
</glyph>
<glyph name="gravecomb.case" format="2">
  <anchor x="0.0" y="700.0" name="_top"/>
  <anchor x="0.0" y="814.75" name="top"/>
  <outline>
    <contour>
      <point x="4.449999999999999" y="740.0" type="line"/>
      <point x="8.475000000000001" y="795.575" type="line"/>
      <point x="-82.64999999999999" y="854.9000000000001" type="line"/>
      <point x="-76.95" y="799.325" type="line"/>
    </contour>
  </outline>
</glyph>
<glyph name="hookabovecombviet" format="2">
  <advance width="300.0"/>
  <anchor x="0.0" y="497.125" name="_top"/>
  <anchor x="0.0" y="682.425" name="top"/>
  <outline>
    <contour>
      <point x="-26.9" y="569.125" type="curve"/>
      <point x="0.525" y="526.225" type="line"/>
      <point x="39.475" y="543.8"/>
      <point x="63.425000000000004" y="568.65"/>
      <point x="63.425000000000004" y="613.2249999999999" type="curve" smooth="yes"/>
      <point x="63.425000000000004" y="663.75"/>
      <point x="25.225" y="707.875"/>
      <point x="-50.175" y="707.875" type="curve" smooth="yes"/>
      <point x="-81.80000000000001" y="707.875"/>
      <point x="-106.6" y="700.925"/>
      <point x="-128.60000000000002" y="687.4000000000001" type="curve"/>
      <point x="-93.57499999999999" y="624.475" type="line"/>
      <point x="-83.475" y="631.05"/>
      <point x="-68.375" y="636.525"/>
      <point x="-50.474999999999994" y="636.525" type="curve" smooth="yes"/>
      <point x="-19.85" y="636.525"/>
      <point x="1.2500000000000004" y="623.4749999999999"/>
      <point x="1.2500000000000004" y="602.8" type="curve" smooth="yes"/>
      <point x="1.2500000000000004" y="584.275"/>
      <point x="-9.175" y="574.225"/>
    </contour>
  </outline>
</glyph>
<glyph name="horncomb.case" format="2">
  <anchor x="180.0" y="700.0" name="_topright"/>
  <outline>
    <contour>
      <point x="191.975" y="610.75" type="curve" smooth="yes"/>
      <point x="259.55" y="610.75"/>
      <point x="326.2" y="663.7750000000001"/>
      <point x="326.2" y="746.9" type="curve" smooth="yes"/>
      <point x="326.2" y="775.25"/>
      <point x="321.2" y="796.9"/>
      <point x="316.2" y="811.9" type="curve"/>
      <point x="221.2" y="811.9" type="line"/>
      <point x="227.72500000000002" y="794.9000000000001"/>
      <point x="231.775" y="776.9"/>
      <point x="231.775" y="759.275" type="curve" smooth="yes"/>
      <point x="232.25" y="723.575"/>
      <point x="215.675" y="692.475"/>
      <point x="161.675" y="692.475" type="curve" smooth="yes"/>
      <point x="122.67500000000001" y="692.475"/>
      <point x="60.025000000000006" y="713.0"/>
      <point x="-25.475" y="713.0" type="curve"/>
      <point x="-31.65" y="632.225" type="line"/>
      <point x="113.125" y="632.225"/>
      <point x="118.625" y="610.75"/>
    </contour>
  </outline>
</glyph>
<glyph name="macroncomb.case" format="2">
  <anchor x="0.0" y="700.0" name="_top"/>
  <anchor x="0.0" y="801.975" name="top"/>
  <outline>
    <contour>
      <point x="-135.8" y="740.0" type="line"/>
      <point x="136.325" y="740.0" type="line"/>
      <point x="136.325" y="810.05" type="line"/>
      <point x="-135.8" y="810.05" type="line"/>
    </contour>
  </outline>
</glyph>
<glyph name="pi.ss10" format="2">
  <advance width="602.7"/>
  <outline>
    <contour>
      <point x="122.975" y="0.0" type="line"/>
      <point x="229.10000000000002" y="0.0" type="line"/>
      <point x="229.10000000000002" y="402.32500000000005" type="line"/>
      <point x="371.45" y="402.32500000000005" type="line"/>
      <point x="371.45" y="0.0" type="line"/>
      <point x="477.575" y="0.0" type="line"/>
      <point x="477.575" y="402.32500000000005" type="line"/>
      <point x="584.275" y="402.32500000000005" type="line"/>
      <point x="584.275" y="497.125" type="line"/>
      <point x="18.425" y="497.125" type="line"/>
      <point x="18.425" y="402.32500000000005" type="line"/>
      <point x="122.975" y="402.32500000000005" type="line"/>
    </contour>
  </outline>
</glyph>
<glyph name="u.ss10" format="2">
  <advance width="569.0250000000001"/>
  <anchor x="285.725" y="0.0" name="bottom"/>
  <anchor x="283.35" y="0.0" name="ogonek"/>
  <anchor x="287.20000000000005" y="497.125" name="top"/>
  <anchor x="501.55" y="497.125" name="topright"/>
  <outline>
    <contour>
      <point x="285.725" y="-12.0" type="curve" smooth="yes"/>
      <point x="424.025" y="-12.0"/>
      <point x="502.975" y="67.85"/>
      <point x="502.975" y="203.575" type="curve" smooth="yes"/>
      <point x="502.975" y="497.125" type="line"/>
      <point x="397.375" y="497.125" type="line"/>
      <point x="397.375" y="219.25" type="line" smooth="yes"/>
      <point x="397.375" y="126.625"/>
      <point x="361.975" y="82.375"/>
      <point x="286.675" y="82.375" type="curve" smooth="yes"/>
      <point x="212.8" y="82.375"/>
      <point x="172.175" y="126.625"/>
      <point x="172.175" y="219.25" type="curve" smooth="yes"/>
      <point x="172.175" y="497.125" type="line"/>
      <point x="66.05000000000001" y="497.125" type="line"/>
      <point x="66.05000000000001" y="203.575" type="line" smooth="yes"/>
      <point x="66.05000000000001" y="67.85"/>
      <point x="148.375" y="-12.0"/>
    </contour>
  </outline>
</glyph>
<glyph name="zero.lf" format="2">
  <advance width="644.5999999999999"/>
  <outline>
    <contour>
      <point x="322.29999999999995" y="-13.0" type="curve" smooth="yes"/>
      <point x="472.275" y="-12.475000000000001"/>
      <point x="578.55" y="100.075"/>
      <point x="578.55" y="248.5" type="curve" smooth="yes"/>
      <point x="578.55" y="455.79999999999995" type="line" smooth="yes"/>
      <point x="578.55" y="597.925"/>
      <point x="472.275" y="711.525"/>
      <point x="322.29999999999995" y="711.0" type="curve" smooth="yes"/>
      <point x="172.325" y="710.4749999999999"/>
      <point x="66.05000000000001" y="597.925"/>
      <point x="66.05000000000001" y="453.17499999999995" type="curve" smooth="yes"/>
      <point x="66.05000000000001" y="244.825" type="line" smooth="yes"/>
      <point x="66.05000000000001" y="100.075"/>
      <point x="172.325" y="-13.525"/>
    </contour>
    <contour>
      <point x="322.29999999999995" y="89.175" type="curve" smooth="yes"/>
      <point x="234.725" y="89.175"/>
      <point x="181.125" y="156.7"/>
      <point x="181.125" y="258.725" type="curve" smooth="yes"/>
      <point x="181.125" y="444.575" type="line" smooth="yes"/>
      <point x="181.125" y="547.15"/>
      <point x="234.725" y="608.825"/>
      <point x="322.29999999999995" y="608.825" type="curve" smooth="yes"/>
      <point x="409.875" y="608.825"/>
      <point x="463.475" y="545.575"/>
      <point x="463.475" y="441.95" type="curve" smooth="yes"/>
      <point x="463.475" y="255.575" type="line" smooth="yes"/>
      <point x="463.475" y="155.125"/>
      <point x="409.875" y="89.175"/>
    </contour>
  </outline>
</glyph>
